<mxfile host="app.diagrams.net" modified="2021-10-10T04:47:21.534Z" agent="5.0 (Macintosh; Intel Mac OS X 10_15_7) AppleWebKit/537.36 (KHTML, like Gecko) Chrome/93.0.4577.63 Safari/537.36" etag="egOi2SCpwyMUr5ELFw3w" version="15.5.0" type="github">
  <diagram name="Page-1" id="c7558073-3199-34d8-9f00-42111426c3f3">
    <mxGraphModel dx="1298" dy="777" grid="1" gridSize="10" guides="1" tooltips="1" connect="1" arrows="1" fold="1" page="1" pageScale="1" pageWidth="826" pageHeight="1169" background="none" math="0" shadow="0">
      <root>
        <mxCell id="0" />
        <mxCell id="1" parent="0" />
        <mxCell id="2" value="&lt;p style=&quot;margin: 4px 0px 0px ; text-align: center&quot;&gt;&lt;u&gt;BatchingSession::Run&lt;/u&gt;&lt;br&gt;&lt;/p&gt;&lt;hr&gt;&lt;p style=&quot;margin: 0px ; margin-left: 8px&quot;&gt;对外体现无差异的&lt;/p&gt;&lt;p style=&quot;margin: 0px ; margin-left: 8px&quot;&gt;Session::Run&lt;/p&gt;&lt;p style=&quot;margin: 0px ; margin-left: 8px&quot;&gt;内部会调BatchScheduler&lt;/p&gt;" style="verticalAlign=middle;align=center;overflow=fill;fontSize=12;fontFamily=Helvetica;html=1;rounded=1;fontStyle=1;strokeWidth=3;fillColor=#E6FFCC" parent="1" vertex="1">
          <mxGeometry x="70" y="200" width="166" height="90" as="geometry" />
        </mxCell>
        <mxCell id="4" value="request" style="whiteSpace=wrap;align=center;verticalAlign=middle;fontStyle=1;strokeWidth=3;fillColor=#FFFFCC" parent="1" vertex="1">
          <mxGeometry x="108" y="70" width="90" height="60" as="geometry" />
        </mxCell>
        <mxCell id="5" value="Batch Queue List" style="shape=process;whiteSpace=wrap;align=center;verticalAlign=middle;size=0.0475;fontStyle=1;strokeWidth=3;fillColor=#FFCCCC" parent="1" vertex="1">
          <mxGeometry x="314" y="427.75" width="190" height="50" as="geometry" />
        </mxCell>
        <mxCell id="6" value="&lt;p style=&quot;margin: 0px ; margin-top: 4px ; text-align: center ; text-decoration: underline&quot;&gt;&lt;/p&gt;&lt;u&gt;PeriodicFunction&lt;br&gt;&lt;/u&gt;&lt;hr&gt;&lt;p style=&quot;margin: 0px ; margin-left: 8px&quot;&gt;遍历List是否有可以处理的batch&lt;/p&gt;&lt;p style=&quot;margin: 0px ; margin-left: 8px&quot;&gt;有调用ProcessBatch&lt;/p&gt;&lt;p style=&quot;margin: 0px ; margin-left: 8px&quot;&gt;没有则调用&lt;/p&gt;&lt;p style=&quot;margin: 0px ; margin-left: 8px&quot;&gt;cv-&amp;gt;wait_for&lt;/p&gt;&lt;p style=&quot;margin: 0px ; margin-left: 8px&quot;&gt;条件变量，带超时block&lt;/p&gt;" style="verticalAlign=middle;align=center;overflow=fill;fontSize=12;fontFamily=Helvetica;html=1;rounded=1;fontStyle=1;strokeWidth=3;fillColor=#E6FFCC" parent="1" vertex="1">
          <mxGeometry x="301.5" y="210" width="215" height="120" as="geometry" />
        </mxCell>
        <mxCell id="7" value="&lt;p style=&quot;margin: 0px ; margin-top: 4px ; text-align: center ; text-decoration: underline&quot;&gt;Queue&amp;lt;TaskType&amp;gt;::ProcessBatch&lt;strong&gt;&lt;br&gt;&lt;/strong&gt;&lt;/p&gt;&lt;hr&gt;&lt;p style=&quot;margin: 0px ; margin-left: 8px&quot;&gt;调用事先注册好的batch处理回调函数&lt;/p&gt;&lt;p style=&quot;margin: 0px ; margin-left: 8px&quot;&gt;process_batch_callback&lt;br&gt;&lt;/p&gt;" style="verticalAlign=middle;align=center;overflow=fill;fontSize=12;fontFamily=Helvetica;html=1;rounded=1;fontStyle=1;strokeWidth=3;fillColor=#E6FFCC" parent="1" vertex="1">
          <mxGeometry x="560" y="418.71000000000004" width="240" height="68.07" as="geometry" />
        </mxCell>
        <mxCell id="37" value="" style="edgeStyle=none;noEdgeStyle=1;strokeColor=#990000;strokeWidth=2" parent="1" source="4" target="2" edge="1">
          <mxGeometry width="100" height="100" relative="1" as="geometry">
            <mxPoint x="260" y="19" as="sourcePoint" />
            <mxPoint x="360" y="-81" as="targetPoint" />
          </mxGeometry>
        </mxCell>
        <mxCell id="66" value="" style="edgeStyle=elbowEdgeStyle;elbow=vertical;entryX=0.5;entryY=1;strokeColor=#3333FF;strokeWidth=2;exitX=0.5;exitY=0;exitDx=0;exitDy=0;entryDx=0;entryDy=0;" parent="1" source="5" target="6" edge="1">
          <mxGeometry width="100" height="100" relative="1" as="geometry">
            <mxPoint x="514" y="250" as="sourcePoint" />
            <mxPoint x="697.5" y="120" as="targetPoint" />
          </mxGeometry>
        </mxCell>
        <mxCell id="67" value="" style="edgeStyle=elbowEdgeStyle;elbow=horizontal;strokeColor=#990000;strokeWidth=2;entryX=0;entryY=0.5;entryDx=0;entryDy=0;exitX=1;exitY=0.5;exitDx=0;exitDy=0;" parent="1" source="wHjbFum-Ni-PFeFnUj7B-98" target="5" edge="1">
          <mxGeometry width="100" height="100" relative="1" as="geometry">
            <mxPoint x="660.0000000000002" y="360" as="sourcePoint" />
            <mxPoint x="736" y="120" as="targetPoint" />
          </mxGeometry>
        </mxCell>
        <mxCell id="72" value="" style="edgeStyle=elbowEdgeStyle;elbow=vertical;strokeColor=#990000;strokeWidth=2;exitX=1;exitY=0.5;exitDx=0;exitDy=0;entryX=0;entryY=0.5;entryDx=0;entryDy=0;" parent="1" source="5" target="7" edge="1">
          <mxGeometry width="100" height="100" relative="1" as="geometry">
            <mxPoint x="500" y="500" as="sourcePoint" />
            <mxPoint x="600" y="400" as="targetPoint" />
            <Array as="points">
              <mxPoint x="620" y="453" />
            </Array>
          </mxGeometry>
        </mxCell>
        <mxCell id="wHjbFum-Ni-PFeFnUj7B-98" value="&lt;p style=&quot;margin: 4px 0px 0px ; text-align: center&quot;&gt;&lt;u&gt;BatchScheduler::Schedule&lt;/u&gt;&lt;br&gt;&lt;/p&gt;&lt;hr&gt;&lt;p style=&quot;margin: 0px ; margin-left: 8px&quot;&gt;进来的request放入queue&lt;/p&gt;&lt;p style=&quot;margin: 0px ; margin-left: 8px&quot;&gt;若当前queue已经达到最大size&lt;/p&gt;&lt;p style=&quot;margin: 0px ; margin-left: 8px&quot;&gt;新开一个queue&lt;/p&gt;&lt;p style=&quot;margin: 0px ; margin-left: 8px&quot;&gt;若已经达到最大size的queue&lt;/p&gt;&lt;p style=&quot;margin: 0px ; margin-left: 8px&quot;&gt;或当前queue的等待时间&lt;/p&gt;&lt;p style=&quot;margin: 0px ; margin-left: 8px&quot;&gt;超过最大值调用&lt;/p&gt;&lt;p style=&quot;margin: 0px ; margin-left: 8px&quot;&gt;cv-&amp;gt;notify_one&lt;br&gt;&lt;/p&gt;&lt;p style=&quot;margin: 0px ; margin-left: 8px&quot;&gt;&lt;br&gt;&lt;/p&gt;&lt;p style=&quot;margin: 0px ; margin-left: 8px&quot;&gt;&lt;br&gt;&lt;/p&gt;" style="verticalAlign=middle;align=center;overflow=fill;fontSize=12;fontFamily=Helvetica;html=1;rounded=1;fontStyle=1;strokeWidth=3;fillColor=#E6FFCC" vertex="1" parent="1">
          <mxGeometry x="65" y="385.5" width="176" height="134.5" as="geometry" />
        </mxCell>
        <mxCell id="wHjbFum-Ni-PFeFnUj7B-100" value="" style="edgeStyle=none;noEdgeStyle=1;strokeColor=#990000;strokeWidth=2;entryX=0.5;entryY=0;entryDx=0;entryDy=0;exitX=0.5;exitY=1;exitDx=0;exitDy=0;" edge="1" parent="1" source="2" target="wHjbFum-Ni-PFeFnUj7B-98">
          <mxGeometry width="100" height="100" relative="1" as="geometry">
            <mxPoint x="163" y="140" as="sourcePoint" />
            <mxPoint x="163" y="210" as="targetPoint" />
          </mxGeometry>
        </mxCell>
        <mxCell id="wHjbFum-Ni-PFeFnUj7B-103" value="" style="edgeStyle=elbowEdgeStyle;elbow=vertical;entryX=0.5;entryY=0;strokeColor=#990000;strokeWidth=2;entryDx=0;entryDy=0;exitX=1;exitY=0.5;exitDx=0;exitDy=0;" edge="1" parent="1" source="6" target="7">
          <mxGeometry width="100" height="100" relative="1" as="geometry">
            <mxPoint x="690" y="340" as="sourcePoint" />
            <mxPoint x="435" y="210" as="targetPoint" />
            <Array as="points">
              <mxPoint x="610" y="270" />
            </Array>
          </mxGeometry>
        </mxCell>
        <mxCell id="wHjbFum-Ni-PFeFnUj7B-105" value="&lt;p style=&quot;margin: 0px ; margin-top: 4px ; text-align: center ; text-decoration: underline&quot;&gt;BatchingSession::ProcessBatch&lt;strong&gt;&lt;br&gt;&lt;/strong&gt;&lt;/p&gt;&lt;hr&gt;&lt;p style=&quot;margin: 0px ; margin-left: 8px&quot;&gt;调用被warp的Session&lt;/p&gt;" style="verticalAlign=middle;align=center;overflow=fill;fontSize=12;fontFamily=Helvetica;html=1;rounded=1;fontStyle=1;strokeWidth=3;fillColor=#E6FFCC" vertex="1" parent="1">
          <mxGeometry x="560" y="560" width="240" height="68.07" as="geometry" />
        </mxCell>
        <mxCell id="wHjbFum-Ni-PFeFnUj7B-106" value="" style="edgeStyle=elbowEdgeStyle;elbow=vertical;entryX=0.5;entryY=0;strokeColor=#990000;strokeWidth=2;entryDx=0;entryDy=0;exitX=0.5;exitY=1;exitDx=0;exitDy=0;" edge="1" parent="1" source="7" target="wHjbFum-Ni-PFeFnUj7B-105">
          <mxGeometry width="100" height="100" relative="1" as="geometry">
            <mxPoint x="700" y="510" as="sourcePoint" />
            <mxPoint x="690" y="428.71000000000004" as="targetPoint" />
            <Array as="points">
              <mxPoint x="680" y="520" />
            </Array>
          </mxGeometry>
        </mxCell>
        <mxCell id="wHjbFum-Ni-PFeFnUj7B-107" value="&lt;p style=&quot;margin: 0px ; margin-top: 4px ; text-align: center ; text-decoration: underline&quot;&gt;tensorflow::Session::Run&lt;strong&gt;&lt;br&gt;&lt;/strong&gt;&lt;/p&gt;&lt;hr&gt;&lt;p style=&quot;margin: 0px ; margin-left: 8px&quot;&gt;执行模型预估&lt;/p&gt;" style="verticalAlign=middle;align=center;overflow=fill;fontSize=12;fontFamily=Helvetica;html=1;rounded=1;fontStyle=1;strokeWidth=3;fillColor=#E6FFCC" vertex="1" parent="1">
          <mxGeometry x="560" y="700" width="240" height="68.07" as="geometry" />
        </mxCell>
        <mxCell id="wHjbFum-Ni-PFeFnUj7B-108" value="" style="edgeStyle=elbowEdgeStyle;elbow=vertical;entryX=0.5;entryY=0;strokeColor=#990000;strokeWidth=2;entryDx=0;entryDy=0;exitX=0.5;exitY=1;exitDx=0;exitDy=0;" edge="1" parent="1" target="wHjbFum-Ni-PFeFnUj7B-107" source="wHjbFum-Ni-PFeFnUj7B-105">
          <mxGeometry width="100" height="100" relative="1" as="geometry">
            <mxPoint x="680" y="640" as="sourcePoint" />
            <mxPoint x="700" y="593.86" as="targetPoint" />
            <Array as="points">
              <mxPoint x="690" y="685.15" />
            </Array>
          </mxGeometry>
        </mxCell>
      </root>
    </mxGraphModel>
  </diagram>
</mxfile>
